<svg width="21" height="23" fill="none" xmlns="http://www.w3.org/2000/svg"><path d="M19.001 21.522a1 1 0 102 0h-2zm-3.505-6.757v-1 1zm-9.01 0v-1 1zM1.98 19.27h-1 1zm-1 2.252a1 1 0 102 0h-2zm20.021 0V19.27h-2v2.252h2zm0-2.252c0-1.46-.58-2.86-1.612-3.893l-1.415 1.414a3.505 3.505 0 011.027 2.479h2zm-1.612-3.893a5.505 5.505 0 00-3.893-1.613v2c.93 0 1.821.37 2.478 1.027l1.415-1.414zm-3.893-1.613h-9.01v2h9.01v-2zm-9.01 0c-1.46 0-2.86.58-3.893 1.613l1.414 1.414a3.505 3.505 0 012.479-1.027v-2zm-3.893 1.613A5.505 5.505 0 00.98 19.27h2c0-.93.37-1.822 1.027-2.479l-1.414-1.414zM.98 19.27v2.252h2V19.27h-2zM14.496 5.754a3.505 3.505 0 01-3.505 3.505v2a5.505 5.505 0 005.505-5.505h-2zM10.991 9.26a3.505 3.505 0 01-3.505-3.505h-2a5.505 5.505 0 005.505 5.505v-2zM7.486 5.754A3.505 3.505 0 0110.99 2.25v-2a5.505 5.505 0 00-5.505 5.505h2zM10.99 2.25a3.505 3.505 0 013.505 3.505h2A5.505 5.505 0 0010.991.25v2z" fill="#000"/></svg>