<svg width="27" height="26" fill="none" xmlns="http://www.w3.org/2000/svg"><circle cx="13.696" cy="13.109" r="12.813" fill="#fff"/><path d="M10.984 6.237a4.164 4.164 0 00-4.16 4.16v5.425a4.164 4.164 0 004.16 4.16h5.426a4.164 4.164 0 004.16-4.16v-5.426a4.164 4.164 0 00-4.16-4.16h-5.426zm6.33 2.532a.723.723 0 110 1.446.723.723 0 010-1.446zm-3.617.723a3.621 3.621 0 013.617 3.617 3.621 3.621 0 01-3.617 3.617 3.621 3.621 0 01-3.617-3.617 3.621 3.621 0 013.617-3.617zm0 1.085a2.533 2.533 0 100 5.065 2.533 2.533 0 000-5.065z" fill="#000"/></svg>