<svg width="27" height="27" fill="none" xmlns="http://www.w3.org/2000/svg"><path fill-rule="evenodd" clip-rule="evenodd" d="M13.45.746C6.406.746.695 6.483.695 13.56s5.71 12.813 12.755 12.813c7.045 0 12.755-5.736 12.755-12.813 0-7.076-5.71-12.813-12.755-12.813zm-2.804 6.02c.726-.032.957-.04 2.805-.04h-.002c1.848 0 2.079.008 2.804.04.725.034 1.22.15 1.653.318.448.175.826.408 1.205.788.378.38.61.761.785 1.21.167.435.282.932.316 1.66.032.728.041.961.041 2.817 0 1.856-.009 2.089-.041 2.818-.034.727-.149 1.223-.316 1.658-.175.45-.407.83-.785 1.21a3.34 3.34 0 01-1.204.79c-.433.168-.928.283-1.652.317-.726.033-.957.041-2.805.041-1.847 0-2.079-.008-2.805-.041-.724-.034-1.218-.149-1.651-.318a3.33 3.33 0 01-1.205-.788 3.35 3.35 0 01-.784-1.211c-.168-.435-.283-.931-.316-1.659-.033-.729-.041-.96-.041-2.817 0-1.856.008-2.089.04-2.818.033-.727.148-1.224.317-1.658.174-.45.406-.83.785-1.21a3.33 3.33 0 011.205-.789c.432-.169.927-.284 1.651-.317z" fill="#fff"/><path fill-rule="evenodd" clip-rule="evenodd" d="M12.84 7.957h.611c1.816 0 2.032.007 2.749.04.663.03 1.023.141 1.263.235.317.124.544.272.782.51.238.24.385.468.509.787.093.24.204.602.234 1.268.033.72.04.937.04 2.76 0 1.825-.007 2.04-.04 2.761-.03.666-.141 1.028-.234 1.269a2.114 2.114 0 01-.51.785 2.085 2.085 0 01-.781.51c-.24.095-.6.206-1.263.236-.717.033-.933.04-2.749.04-1.817 0-2.032-.007-2.749-.04-.663-.03-1.023-.142-1.263-.235a2.105 2.105 0 01-.782-.511 2.119 2.119 0 01-.51-.786c-.093-.24-.204-.602-.234-1.268-.032-.72-.039-.937-.039-2.762s.007-2.04.04-2.76c.03-.667.14-1.028.234-1.27.123-.318.27-.546.509-.785a2.11 2.11 0 01.782-.512c.24-.094.6-.205 1.263-.235.628-.029.87-.037 2.139-.039v.002zm4.242 1.135a.818.818 0 00-.816.82c0 .452.366.82.816.82.45 0 .816-.368.816-.82a.818.818 0 00-.816-.82zm-7.125 4.467a3.502 3.502 0 013.494-3.51 3.501 3.501 0 013.493 3.51 3.5 3.5 0 01-3.493 3.509 3.501 3.501 0 01-3.494-3.509z" fill="#fff"/><path d="M13.451 11.281a2.273 2.273 0 012.268 2.278 2.273 2.273 0 01-2.268 2.278 2.273 2.273 0 01-2.268-2.278 2.273 2.273 0 012.268-2.278z" fill="#fff"/></svg>