<svg width="23" height="23" fill="none" xmlns="http://www.w3.org/2000/svg"><path d="M15.926 10.816l-.99.147.99-.146zm-3.37-3.37l-.147.99.147-.99zm4.87-2.5a1 1 0 100 2v-2zm.01 2a1 1 0 100-2v2zm-10.51-4.5h10v-2h-10v2zm10 0a4 4 0 014 4h2a6 6 0 00-6-6v2zm4 4v10h2v-10h-2zm0 10a4 4 0 01-4 4v2a6 6 0 006-6h-2zm-4 4h-10v2h10v-2zm-10 0a4 4 0 01-4-4h-2a6 6 0 006 6v-2zm-4-4v-10h-2v10h2zm0-10a4 4 0 014-4v-2a6 6 0 00-6 6h2zm12.01 4.517a3 3 0 01-.304 1.822l1.775.921a5.001 5.001 0 00.508-3.036l-1.978.293zm-.304 1.822a3 3 0 01-1.314 1.298l.899 1.786a5 5 0 002.19-2.163l-1.775-.921zm-1.314 1.298a3 3 0 01-1.826.282l-.317 1.975a5 5 0 003.042-.47l-.9-1.787zm-1.826.282a3 3 0 01-1.644-.84l-1.414 1.414a5 5 0 002.74 1.4l.318-1.974zm-1.644-.84a3 3 0 01-.84-1.645l-1.975.318a5 5 0 001.4 2.74l1.415-1.413zm-.84-1.645a3 3 0 01.281-1.825l-1.786-.9a5 5 0 00-.47 3.043l1.974-.318zm.281-1.825a3 3 0 011.298-1.315l-.92-1.775a5 5 0 00-2.164 2.19l1.786.9zm1.298-1.315a3 3 0 011.822-.304l.293-1.979a5 5 0 00-3.036.508l.921 1.775zm1.822-.304a3 3 0 011.681.846l1.415-1.414a5 5 0 00-2.803-1.41l-.293 1.978zm1.681.846a3 3 0 01.847 1.681l1.978-.293a5 5 0 00-1.41-2.802L14.09 9.282zm3.336-2.335h.01v-2h-.01v2z" fill="#000"/></svg>