<svg width="22" height="19" fill="none" xmlns="http://www.w3.org/2000/svg"><path d="M11 10.817l-.573.82a1 1 0 001.146 0l-.573-.82zm-8-8h16v-2H3v2zm16 0c.548 0 1 .453 1 1h2c0-1.652-1.348-3-3-3v2zm1 1v12h2v-12h-2zm0 12c0 .548-.452 1-1 1v2c1.652 0 3-1.347 3-3h-2zm-1 1H3v2h16v-2zm-16 0c-.548 0-1-.452-1-1H0c0 1.653 1.348 3 3 3v-2zm-1-1v-12H0v12h2zm0-12c0-.547.452-1 1-1v-2c-1.652 0-3 1.348-3 3h2zm18.427-.819l-10 7 1.146 1.639 10-7-1.146-1.639zm-8.854 7l-10-7L.427 4.637l10 7 1.146-1.639z" fill="#000"/></svg>