<svg width="20" height="25" fill="none" xmlns="http://www.w3.org/2000/svg"><path d="M19 10.683h1-1zm-9 13l-.555.832a1 1 0 001.11 0L10 23.683zm-9-13H0h1zm9-9v1-1zm8 9c0 3.098-2.016 6.104-4.226 8.437a29.427 29.427 0 01-3.973 3.48 16.718 16.718 0 01-.337.238l-.016.01-.003.003.555.832a159.275 159.275 0 00.556.83h.002l.007-.005.023-.016.082-.056a28.532 28.532 0 001.359-1.018 31.43 31.43 0 003.197-2.923c2.29-2.417 4.774-5.91 4.774-9.812h-2zm-8 13l.555-.832-.003-.002-.016-.011a10.36 10.36 0 01-.337-.238 29.432 29.432 0 01-3.973-3.48C4.016 16.787 2 13.78 2 10.683H0c0 3.902 2.484 7.395 4.774 9.812a31.425 31.425 0 004.254 3.727 19.098 19.098 0 00.414.29l.002.002.556-.831zm-8-13a8 8 0 012.343-5.657L2.93 3.612A10 10 0 000 10.682h2zm2.343-5.657A8 8 0 0110 2.683v-2a10 10 0 00-7.071 2.929l1.414 1.414zM10 2.683a8 8 0 015.657 2.343l1.414-1.414A10 10 0 0010 .682v2zm5.657 2.343A8 8 0 0118 10.683h2a10 10 0 00-2.929-7.071l-1.414 1.414zM12 10.683a2 2 0 01-2 2v2a4 4 0 004-4h-2zm-2 2a2 2 0 01-2-2H6a4 4 0 004 4v-2zm-2-2a2 2 0 012-2v-2a4 4 0 00-4 4h2zm2-2a2 2 0 012 2h2a4 4 0 00-4-4v2z" fill="#000"/></svg>