<svg width="17" height="18" fill="none" xmlns="http://www.w3.org/2000/svg"><path d="M16.098 12.866l-.5-.012v.012h.5zm0 2.345h-.5v.002l.5-.002zm-1.704 1.564l-.055.497h.01l.044-.497zm-6.747-2.4l.272-.42-.004-.002-.268.422zm-4.69-4.69l.422-.269-.002-.003-.42.272zm-2.4-6.778l-.498.045v.008l.498-.053zm1.556-1.704v-.5.5zm2.345 0v.5h.005l-.005-.5zM6.02 2.548l.496-.066v-.004l-.496.07zm.548 2.196L6.1 4.92v.001l.469-.176zm-.352 1.65l.353.353.002-.002-.355-.351zm-.993.992l-.354-.353a.5.5 0 00-.08.6l.434-.247zm4.69 4.69l-.247.435a.5.5 0 00.6-.08l-.353-.354zm.993-.992l-.351-.356-.002.002.353.354zm1.65-.352l-.176.468.175-.468zm2.196.547l.07-.495h-.005l-.065.495zm.845 1.587v2.345h1v-2.345h-1zm0 2.347c0 .149-.03.295-.09.43l.917.401c.115-.263.174-.547.173-.835l-1 .004zm-.09.43a1.057 1.057 0 01-.255.358l.676.737c.212-.194.38-.43.496-.694l-.916-.4zm-.255.358a1.06 1.06 0 01-.378.224l.32.947a2.07 2.07 0 00.734-.434l-.676-.737zm-.378.224c-.14.047-.289.065-.437.052l-.09.996c.287.026.575-.009.847-.1l-.32-.948zm-.427.053a14.97 14.97 0 01-6.529-2.323l-.544.84a15.971 15.971 0 006.964 2.477l.109-.994zm-6.533-2.325A14.743 14.743 0 013.38 9.416l-.844.537a15.744 15.744 0 004.844 4.844l.536-.844zm-4.538-4.54a14.97 14.97 0 01-2.323-6.559L.06 2.96a15.97 15.97 0 002.477 6.996l.84-.543zm-2.322-6.55a1.063 1.063 0 01.051-.436l-.947-.32a2.063 2.063 0 00-.1.845l.996-.09zm.051-.436c.048-.14.123-.269.223-.378L.59 1.375c-.193.212-.34.461-.431.733l.947.319zm.223-.378c.1-.109.22-.196.356-.255L1.28.879a2.063 2.063 0 00-.69.496l.739.674zm.356-.255c.135-.06.28-.09.428-.091v-1c-.287 0-.57.06-.833.176l.405.915zm.428-.091h2.345v-1H2.113v1zm2.35 0c.258-.003.508.089.704.257l.652-.758A2.063 2.063 0 004.453.703l.01 1zm.704.257c.195.168.323.402.36.657l.99-.14a2.063 2.063 0 00-.698-1.275l-.652.758zm.359.653c.104.788.296 1.561.574 2.306l.937-.35a9.538 9.538 0 01-.52-2.087l-.991.13zM6.1 4.92c.071.19.087.397.044.596l.978.209a2.063 2.063 0 00-.086-1.157L6.1 4.92zm.044.596c-.042.199-.14.381-.284.526l.711.703c.278-.28.469-.635.551-1.02l-.978-.209zm-.282.524l-.993.993.708.707.992-.993-.707-.707zM4.79 7.633a13.007 13.007 0 004.878 4.878l.494-.869A12.007 12.007 0 015.66 7.139l-.87.494zm5.479 4.797l.993-.993-.707-.707-.993.993.707.707zm.99-.99c.145-.144.328-.242.527-.284l-.209-.979c-.386.083-.74.274-1.02.551l.703.711zm.527-.284c.198-.043.405-.027.596.044l.351-.936a2.063 2.063 0 00-1.156-.086l.209.977zm.597.045c.744.277 1.518.47 2.306.574l.13-.991a9.544 9.544 0 01-2.087-.52l-.35.937zm2.301.573c.259.037.495.167.663.366l.763-.647a2.063 2.063 0 00-1.286-.709l-.14.99zm.663.366c.169.199.258.453.252.714l1 .025a2.063 2.063 0 00-.489-1.386l-.763.647z" fill="#1D1D1D"/></svg>