<svg width="18" height="18" fill="none" xmlns="http://www.w3.org/2000/svg"><path d="M17.188 12.811l-.75-.019v.019h.75zm0 2.345h-.75v.003l.75-.003zm-1.705 1.564l-.08.745.013.002.067-.747zm-6.746-2.4l.408-.63-.006-.003-.402.633zm-4.69-4.69l.633-.403-.004-.005-.63.407zm-2.4-6.778L.9 2.919l.001.012.746-.08zm1.556-1.704v-.75h-.001v.75zm2.345 0v.75h.007l-.007-.75zM7.11 2.492l.744-.098-.001-.007-.743.105zm.547 2.197l-.702.262v.002l.702-.264zm-.351 1.65l.53.53.003-.003-.533-.528zm-.993.992l-.53-.53a.75.75 0 00-.122.9l.652-.37zm4.69 4.69l-.37.652a.75.75 0 00.9-.121l-.53-.53zm.993-.992l-.527-.534-.003.003.53.53zm1.65-.352l-.265.702h.002l.262-.702zm2.196.547l.105-.742-.007-.001-.098.743zm.595 1.587v2.345h1.5v-2.345h-1.5zm0 2.348a.812.812 0 01-.069.33l1.375.6c.129-.295.195-.614.194-.936l-1.5.006zm-.069.33a.813.813 0 01-.195.273l1.014 1.105c.237-.218.427-.483.556-.778l-1.375-.6zm-.195.273a.814.814 0 01-.29.171l.481 1.421c.305-.103.586-.269.823-.487l-1.014-1.105zm-.29.171a.815.815 0 01-.333.04l-.135 1.494c.32.029.644-.01.95-.113l-.481-1.42zm-.32.041a14.72 14.72 0 01-6.419-2.284l-.814 1.26a16.219 16.219 0 007.073 2.516l.162-1.491zM9.14 13.687a14.493 14.493 0 01-4.46-4.46l-1.265.805a15.993 15.993 0 004.92 4.92l.805-1.265zM4.676 9.222a14.72 14.72 0 01-2.283-6.45L.9 2.933a16.22 16.22 0 002.516 7.105l1.26-.815zM2.394 2.784a.813.813 0 01.04-.332l-1.422-.48A2.33 2.33 0 00.9 2.92l1.494-.135zm.04-.332a.814.814 0 01.17-.29l-1.109-1.01a2.313 2.313 0 00-.483.82l1.421.48zm.17-.29a.813.813 0 01.271-.195L2.27.595c-.293.13-.557.32-.774.557l1.108 1.01zm.271-.195a.814.814 0 01.328-.07l-.001-1.5a2.325 2.325 0 00-.933.198l.606 1.372zm.328-.07h2.345v-1.5H3.203v1.5zm2.352 0a.813.813 0 01.539.197L7.072.957A2.313 2.313 0 005.54.397l.015 1.5zm.539.197c.15.13.247.308.275.503l1.485-.21a2.313 2.313 0 00-.782-1.43l-.978 1.137zm.274.496c.106.807.303 1.599.588 2.361l1.405-.524a9.287 9.287 0 01-.506-2.033l-1.487.196zm.588 2.363a.813.813 0 01.034.456l1.467.313a2.313 2.313 0 00-.097-1.297l-1.404.528zm.034.456a.814.814 0 01-.217.402L7.84 6.866c.31-.315.525-.712.617-1.144L6.99 5.409zm-.214.4l-.992.992 1.06 1.06.993-.992-1.06-1.06zM5.662 7.701a13.258 13.258 0 004.971 4.972l.742-1.304a11.757 11.757 0 01-4.41-4.41l-1.303.742zm5.872 4.85l.993-.993-1.06-1.06-.993.992 1.06 1.06zm.99-.99a.8.8 0 01.403-.217l-.313-1.467c-.433.092-.83.306-1.144.617l1.054 1.067zm.403-.217a.813.813 0 01.456.034l.527-1.404a2.313 2.313 0 00-1.296-.097l.313 1.467zm.457.035c.762.284 1.554.481 2.36.588l.197-1.487a9.29 9.29 0 01-2.033-.507l-.524 1.406zm2.354.587a.813.813 0 01.507.28l1.145-.97a2.314 2.314 0 00-1.442-.795l-.21 1.485zm.507.28a.813.813 0 01.193.545l1.5.038a2.313 2.313 0 00-.548-1.553l-1.145.97z" fill="#000"/></svg>