<svg width="27" height="27" fill="none" xmlns="http://www.w3.org/2000/svg"><path fill-rule="evenodd" clip-rule="evenodd" d="M13.52.746C6.477.746.767 6.483.767 13.56s5.71 12.813 12.755 12.813c7.044 0 12.755-5.736 12.755-12.813C26.276 6.483 20.565.746 13.52.746zm1.04 16.858c-.127.133-.372.16-.372.16h-.813S11.58 17.87 10 16.248c-1.723-1.77-3.245-5.28-3.245-5.28s-.088-.23.007-.342c.107-.125.4-.133.4-.133l1.943-.012s.183.03.314.124c.109.079.17.225.17.225s.313.784.73 1.492c.812 1.384 1.19 1.687 1.465 1.539.402-.216.282-1.957.282-1.957s.007-.63-.203-.912c-.162-.218-.468-.282-.603-.3-.11-.014.07-.264.303-.377.35-.168.967-.178 1.697-.171.57.006.733.04.955.094.516.123.5.516.465 1.365-.01.254-.022.548-.022.889 0 .076-.003.158-.005.242-.012.435-.026.933.265 1.118.149.095.513.014 1.424-1.511.432-.723.755-1.573.755-1.573s.071-.152.181-.216c.113-.067.264-.046.264-.046l2.046-.013s.615-.073.714.201c.104.287-.23.958-1.066 2.056-.792 1.043-1.178 1.426-1.143 1.766.026.248.277.472.758.912 1.005.92 1.274 1.404 1.339 1.52l.012.021c.45.737-.5.795-.5.795l-1.817.025s-.39.076-.904-.272c-.269-.182-.532-.479-.782-.762-.383-.432-.736-.832-1.038-.738-.506.16-.49 1.235-.49 1.235s.003.23-.112.352z" fill="#fff"/></svg>