<svg width="23" height="23" fill="none" xmlns="http://www.w3.org/2000/svg"><path d="M15.926 11.447l1 .02v-.041l-1 .02zm-8 0l-1-.021a1 1 0 000 .041l1-.02zm13 0a9 9 0 01-9 9v2c6.075 0 11-4.925 11-11h-2zm-9 9a9 9 0 01-9-9h-2c0 6.075 4.925 11 11 11v-2zm-9-9a9 9 0 019-9v-2c-6.075 0-11 4.924-11 11h2zm9-9a9 9 0 019 9h2c0-6.076-4.925-11-11-11v2zm-10 10h20v-2h-20v2zM11.187 2.12a14.3 14.3 0 013.739 9.346l2-.041A16.3 16.3 0 0012.664.772l-1.477 1.349zm3.739 9.305a14.3 14.3 0 01-3.739 9.346l1.477 1.349a16.3 16.3 0 004.262-10.654l-2-.041zm-2.262 9.346a14.3 14.3 0 01-3.738-9.346l-2 .041a16.3 16.3 0 004.261 10.654l1.477-1.349zm-3.738-9.305a14.3 14.3 0 013.738-9.346L11.187.772a16.3 16.3 0 00-4.261 10.654l2 .041z" fill="#000"/></svg>