<svg width="26" height="27" fill="none" xmlns="http://www.w3.org/2000/svg"><path fill-rule="evenodd" clip-rule="evenodd" d="M13.14.746C6.095.746.385 6.483.385 13.56s5.71 12.813 12.755 12.813c7.044 0 12.755-5.736 12.755-12.813 0-7.076-5.71-12.813-12.755-12.813zm5.315 8.408a1.731 1.731 0 011.203 1.241c.284 1.094.284 3.378.284 3.378s0 2.283-.284 3.378a1.732 1.732 0 01-1.203 1.24c-1.06.293-5.315.293-5.315.293s-4.255 0-5.316-.293a1.732 1.732 0 01-1.203-1.24c-.284-1.095-.284-3.378-.284-3.378s0-2.284.284-3.378a1.731 1.731 0 011.203-1.24c1.061-.294 5.316-.294 5.316-.294s4.254 0 5.315.293z" fill="#fff"/><path d="M11.864 16.122V11.85l3.402 2.135-3.402 2.136z" fill="#fff"/></svg>